<svg xmlns="http://www.w3.org/2000/svg" height="24px" viewBox="0 0 24 24" width="24px" fill="#e3e3e3">
  <path transform="translate(6.52 5.095)" d="M5.62,13.81c-1.13,0-2.11-.17-2.94-.51-.84-.34-1.49-.85-1.95-1.53s-.71-1.55-.73-2.58h3.08c.03.43.15.8.36,1.09.21.3.5.52.86.66.37.15.79.22,1.28.22.44,0,.82-.06,1.14-.18.32-.12.57-.29.74-.51.17-.22.26-.47.26-.76,0-.26-.08-.48-.24-.66-.16-.18-.4-.34-.72-.48-.32-.14-.73-.26-1.23-.37l-1.43-.33c-1.17-.26-2.08-.7-2.75-1.3-.67-.6-1-1.41-1-2.42,0-.83.23-1.56.68-2.18.45-.63,1.08-1.11,1.87-1.46s1.7-.52,2.72-.52,1.95.18,2.72.53c.77.35,1.36.84,1.79,1.47.42.63.64,1.36.65,2.19h-3.08c-.04-.49-.24-.87-.6-1.14-.36-.27-.86-.41-1.5-.41-.42,0-.78.06-1.07.17-.29.11-.51.26-.65.46s-.22.42-.22.67c0,.28.08.51.24.7.16.19.4.35.7.47s.65.23,1.05.32l1.17.27c.65.14,1.24.33,1.75.56s.94.52,1.3.85c.35.33.62.71.81,1.15.19.43.28.92.28,1.45,0,.85-.21,1.58-.64,2.19s-1.04,1.08-1.83,1.4c-.8.33-1.75.49-2.87.49Z"/>
</svg>
